<svg xmlns="http://www.w3.org/2000/svg" width="2800" height="954"><path d="M1384,625L1375,281L1060,546Z" fill="#ff7d1b" stroke="#ff7d1b" stroke-width="1.51"/><path d="M1375,281L1095,178L1060,546Z" fill="#ff8c16" stroke="#ff8c16" stroke-width="1.51"/><path d="M1375,281L1520,1L1095,178Z" fill="#ff9613" stroke="#ff9613" stroke-width="1.51"/><path d="M1384,625L1661,302L1375,281Z" fill="#fd7d20" stroke="#fd7d20" stroke-width="1.51"/><path d="M1661,302L1520,1L1375,281Z" fill="#fc8d23" stroke="#fc8d23" stroke-width="1.51"/><path d="M1060,546L1317,1031L1384,625Z" fill="#eb654b" stroke="#eb654b" stroke-width="1.51"/><path d="M1384,625L1880,595L1661,302Z" fill="#f76e33" stroke="#f76e33" stroke-width="1.51"/><path d="M1822,896L1880,595L1384,625Z" fill="#e55854" stroke="#e55854" stroke-width="1.51"/><path d="M1661,302L1876,-162L1520,1Z" fill="#f99431" stroke="#f99431" stroke-width="1.51"/><path d="M577,309L584,549L1060,546Z" fill="#ff8d16" stroke="#ff8d16" stroke-width="1.51"/><path d="M1520,1L1012,-140L1095,178Z" fill="#ffa410" stroke="#ffa410" stroke-width="1.51"/><path d="M1060,546L979,1105L1317,1031Z" fill="#de5961" stroke="#de5961" stroke-width="1.51"/><path d="M577,309L1060,546L1095,178Z" fill="#ff9315" stroke="#ff9315" stroke-width="1.51"/><path d="M697,-182L577,309L1095,178Z" fill="#ffa90e" stroke="#ffa90e" stroke-width="1.51"/><path d="M642,904L979,1105L1060,546Z" fill="#e2645c" stroke="#e2645c" stroke-width="1.51"/><path d="M1317,1031L1822,896L1384,625Z" fill="#df505f" stroke="#df505f" stroke-width="1.51"/><path d="M584,549L642,904L1060,546Z" fill="#f17a42" stroke="#f17a42" stroke-width="1.51"/><path d="M1012,-140L697,-182L1095,178Z" fill="#ffad0d" stroke="#ffad0d" stroke-width="1.51"/><path d="M2012,-29L1876,-162L1661,302Z" fill="#f58f3c" stroke="#f58f3c" stroke-width="1.51"/><path d="M1822,896L2095,660L1880,595Z" fill="#de4f60" stroke="#de4f60" stroke-width="1.51"/><path d="M1398,-476L1049,-412L1012,-140Z" fill="#ffa70f" stroke="#ffa70f" stroke-width="1.51"/><path d="M1012,-140L1049,-412L697,-182Z" fill="#ffad0c" stroke="#ffad0c" stroke-width="1.51"/><path d="M2012,-29L1661,302L2172,348Z" fill="#f27f42" stroke="#f27f42" stroke-width="1.51"/><path d="M1398,-476L1012,-140L1520,1Z" fill="#ffa310" stroke="#ffa310" stroke-width="1.51"/><path d="M2172,348L1661,302L1880,595Z" fill="#f26e3e" stroke="#f26e3e" stroke-width="1.51"/><path d="M2095,660L2172,348L1880,595Z" fill="#e95d4e" stroke="#e95d4e" stroke-width="1.51"/><path d="M979,1105L1077,1377L1317,1031Z" fill="#d95368" stroke="#d95368" stroke-width="1.51"/><path d="M1317,1031L1366,1413L1822,896Z" fill="#d6456b" stroke="#d6456b" stroke-width="1.51"/><path d="M611,1470L1077,1377L979,1105Z" fill="#d95a69" stroke="#d95a69" stroke-width="1.51"/><path d="M1811,-483L1398,-476L1520,1Z" fill="#fc9b28" stroke="#fc9b28" stroke-width="1.51"/><path d="M1077,1377L1366,1413L1317,1031Z" fill="#d94e67" stroke="#d94e67" stroke-width="1.51"/><path d="M1822,896L2154,996L2095,660Z" fill="#ce3d73" stroke="#ce3d73" stroke-width="1.51"/><path d="M1803,1494L2154,996L1822,896Z" fill="#c8347c" stroke="#c8347c" stroke-width="1.51"/><path d="M2095,660L2474,632L2172,348Z" fill="#e35558" stroke="#e35558" stroke-width="1.51"/><path d="M642,904L611,1470L979,1105Z" fill="#d95f6a" stroke="#d95f6a" stroke-width="1.51"/><path d="M584,549L195,545L642,904Z" fill="#f18243" stroke="#f18243" stroke-width="1.51"/><path d="M577,309L195,545L584,549Z" fill="#ff9514" stroke="#ff9514" stroke-width="1.51"/><path d="M223,187L195,545L577,309Z" fill="#ffa210" stroke="#ffa210" stroke-width="1.51"/><path d="M251,33L223,187L577,309Z" fill="#ffaf0c" stroke="#ffaf0c" stroke-width="1.51"/><path d="M356,-475L251,33L697,-182Z" fill="#ffba06" stroke="#ffba06" stroke-width="1.51"/><path d="M697,-182L251,33L577,309Z" fill="#ffb40a" stroke="#ffb40a" stroke-width="1.51"/><path d="M1876,-162L1811,-483L1520,1Z" fill="#f89634" stroke="#f89634" stroke-width="1.51"/><path d="M2254,-404L1811,-483L1876,-162Z" fill="#f28e45" stroke="#f28e45" stroke-width="1.51"/><path d="M1049,-412L583,-429L697,-182Z" fill="#ffb10b" stroke="#ffb10b" stroke-width="1.51"/><path d="M1398,-476L583,-429L1049,-412Z" fill="#ffab0d" stroke="#ffab0d" stroke-width="1.51"/><path d="M195,545L328,1086L642,904Z" fill="#e3745d" stroke="#e3745d" stroke-width="1.51"/><path d="M611,1470L1803,1494L1366,1413Z" fill="#d94e67" stroke="#d94e67" stroke-width="1.51"/><path d="M1366,1413L1803,1494L1822,896Z" fill="#d03f71" stroke="#d03f71" stroke-width="1.51"/><path d="M1077,1377L611,1470L1366,1413Z" fill="#d95668" stroke="#d95668" stroke-width="1.51"/><path d="M328,1086L611,1470L642,904Z" fill="#d9666b" stroke="#d9666b" stroke-width="1.51"/><path d="M2585,1096L2474,632L2154,996Z" fill="#bb2589" stroke="#bb2589" stroke-width="1.51"/><path d="M2154,996L2474,632L2095,660Z" fill="#d03e72" stroke="#d03e72" stroke-width="1.51"/><path d="M2172,348L2375,-170L2012,-29Z" fill="#ec8450" stroke="#ec8450" stroke-width="1.51"/><path d="M2012,-29L2254,-404L1876,-162Z" fill="#f08c48" stroke="#f08c48" stroke-width="1.51"/><path d="M2474,632L2503,254L2172,348Z" fill="#e55e55" stroke="#e55e55" stroke-width="1.51"/><path d="M2503,254L2375,-170L2172,348Z" fill="#e77757" stroke="#e77757" stroke-width="1.51"/><path d="M583,-429L356,-475L697,-182Z" fill="#ffb708" stroke="#ffb708" stroke-width="1.51"/><path d="M1398,-476L356,-475L583,-429Z" fill="#ffb10b" stroke="#ffb10b" stroke-width="1.51"/><path d="M2863,-560L356,-475L1398,-476Z" fill="#fd9c24" stroke="#fd9c24" stroke-width="1.51"/><path d="M-104,1060L293,1347L328,1086Z" fill="#da706c" stroke="#da706c" stroke-width="1.51"/><path d="M328,1086L293,1347L611,1470Z" fill="#da696b" stroke="#da696b" stroke-width="1.51"/><path d="M2375,-170L2254,-404L2012,-29Z" fill="#eb8751" stroke="#eb8751" stroke-width="1.51"/><path d="M-134,-178L-73,380L223,187Z" fill="#ffbb06" stroke="#ffbb06" stroke-width="1.51"/><path d="M223,187L-73,380L195,545Z" fill="#ffa60f" stroke="#ffa60f" stroke-width="1.51"/><path d="M195,545L-104,1060L328,1086Z" fill="#df7665" stroke="#df7665" stroke-width="1.51"/><path d="M-134,-178L223,187L251,33Z" fill="#ffc102" stroke="#ffc102" stroke-width="1.51"/><path d="M-73,380L-156,667L195,545Z" fill="#fc9b26" stroke="#fc9b26" stroke-width="1.51"/><path d="M1803,1494L2229,1504L2154,996Z" fill="#c32e81" stroke="#c32e81" stroke-width="1.51"/><path d="M41,1514L2229,1504L1803,1494Z" fill="#d94b67" stroke="#d94b67" stroke-width="1.51"/><path d="M2229,1504L2417,1363L2154,996Z" fill="#bc2589" stroke="#bc2589" stroke-width="1.51"/><path d="M2417,1363L2585,1096L2154,996Z" fill="#b7208d" stroke="#b7208d" stroke-width="1.51"/><path d="M2474,632L2920,357L2503,254Z" fill="#de5560" stroke="#de5560" stroke-width="1.51"/><path d="M-73,380L-332,249L-156,667Z" fill="#ffa410" stroke="#ffa410" stroke-width="1.51"/><path d="M356,-475L44,-403L251,33Z" fill="#ffc003" stroke="#ffc003" stroke-width="1.51"/><path d="M-156,667L-104,1060L195,545Z" fill="#eb8752" stroke="#eb8752" stroke-width="1.51"/><path d="M44,-403L-134,-178L251,33Z" fill="#ffc401" stroke="#ffc401" stroke-width="1.51"/><path d="M-134,-178L-332,249L-73,380Z" fill="#ffba06" stroke="#ffba06" stroke-width="1.51"/><path d="M-156,667L-361,976L-104,1060Z" fill="#df7a66" stroke="#df7a66" stroke-width="1.51"/><path d="M611,1470L41,1514L1803,1494Z" fill="#d95d69" stroke="#d95d69" stroke-width="1.51"/><path d="M293,1347L41,1514L611,1470Z" fill="#da6c6c" stroke="#da6c6c" stroke-width="1.51"/><path d="M-104,1060L41,1514L293,1347Z" fill="#da736d" stroke="#da736d" stroke-width="1.51"/><path d="M2375,-170L2610,-499L2254,-404Z" fill="#e6815c" stroke="#e6815c" stroke-width="1.51"/><path d="M2254,-404L2610,-499L1811,-483Z" fill="#eb8752" stroke="#eb8752" stroke-width="1.51"/><path d="M1811,-483L2863,-560L1398,-476Z" fill="#f08d47" stroke="#f08d47" stroke-width="1.51"/><path d="M2923,-63L2610,-499L2375,-170Z" fill="#df7a66" stroke="#df7a66" stroke-width="1.51"/><path d="M2923,-63L2375,-170L2503,254Z" fill="#e07b64" stroke="#e07b64" stroke-width="1.51"/><path d="M2921,718L2920,357L2474,632Z" fill="#d14071" stroke="#d14071" stroke-width="1.51"/><path d="M2869,1095L2921,718L2585,1096Z" fill="#a7019c" stroke="#a7019c" stroke-width="1.51"/><path d="M2585,1096L2921,718L2474,632Z" fill="#bc2688" stroke="#bc2688" stroke-width="1.51"/><path d="M-134,-178L-326,-150L-332,249Z" fill="#ffc500" stroke="#ffc500" stroke-width="1.51"/><path d="M-522,-358L-326,-150L-134,-178Z" fill="#ffc500" stroke="#ffc500" stroke-width="1.51"/><path d="M-104,1060L-317,1272L41,1514Z" fill="#da756d" stroke="#da756d" stroke-width="1.51"/><path d="M-420,740L-361,976L-156,667Z" fill="#e88457" stroke="#e88457" stroke-width="1.51"/><path d="M-420,740L-156,667L-332,249Z" fill="#fb9a2b" stroke="#fb9a2b" stroke-width="1.51"/><path d="M-522,-358L-420,740L-332,249Z" fill="#ffb509" stroke="#ffb509" stroke-width="1.51"/><path d="M2895,1390L2869,1095L2585,1096Z" fill="#a7019d" stroke="#a7019d" stroke-width="1.51"/><path d="M2895,1390L2585,1096L2417,1363Z" fill="#ad1097" stroke="#ad1097" stroke-width="1.51"/><path d="M3155,-324L2923,-63L3283,-74Z" fill="#da756d" stroke="#da756d" stroke-width="1.51"/><path d="M2920,357L2923,-63L2503,254Z" fill="#da666a" stroke="#da666a" stroke-width="1.51"/><path d="M-420,740L-317,1272L-361,976Z" fill="#da756d" stroke="#da756d" stroke-width="1.51"/><path d="M-361,976L-317,1272L-104,1060Z" fill="#da756d" stroke="#da756d" stroke-width="1.51"/><path d="M2229,1504L2895,1390L2417,1363Z" fill="#b21892" stroke="#b21892" stroke-width="1.51"/><path d="M3254,1108L3291,701L2921,718Z" fill="#b41b91" stroke="#b41b91" stroke-width="1.51"/><path d="M2923,-63L2863,-560L2610,-499Z" fill="#da756d" stroke="#da756d" stroke-width="1.51"/><path d="M2610,-499L2863,-560L1811,-483Z" fill="#e5815c" stroke="#e5815c" stroke-width="1.51"/><path d="M-326,-150L-522,-358L-332,249Z" fill="#ffc500" stroke="#ffc500" stroke-width="1.51"/><path d="M44,-403L-522,-358L-134,-178Z" fill="#ffc500" stroke="#ffc500" stroke-width="1.51"/><path d="M356,-475L-522,-358L44,-403Z" fill="#ffc500" stroke="#ffc500" stroke-width="1.51"/><path d="M2921,718L3291,701L2920,357Z" fill="#ce3c74" stroke="#ce3c74" stroke-width="1.51"/><path d="M2923,-63L3155,-324L2863,-560Z" fill="#da756d" stroke="#da756d" stroke-width="1.51"/><path d="M3254,1108L2921,718L2869,1095Z" fill="#a6009d" stroke="#a6009d" stroke-width="1.51"/><path d="M3294,193L2923,-63L2920,357Z" fill="#da676b" stroke="#da676b" stroke-width="1.51"/><path d="M3291,701L3294,193L2920,357Z" fill="#d94f67" stroke="#d94f67" stroke-width="1.51"/><path d="M3294,193L3283,-74L2923,-63Z" fill="#da746d" stroke="#da746d" stroke-width="1.51"/><path d="M3226,1316L3254,1108L2869,1095Z" fill="#a6009d" stroke="#a6009d" stroke-width="1.51"/><path d="M2895,1390L3226,1316L2869,1095Z" fill="#a6009d" stroke="#a6009d" stroke-width="1.51"/></svg>