<?xml version="1.0" encoding="UTF-8"?>
<!DOCTYPE svg PUBLIC "-//W3C//DTD SVG 1.1//EN"
  "http://www.w3.org/Graphics/SVG/1.1/DTD/svg11.dtd">
<svg height="420pt" viewBox="0,0,788,420" xmlns:xlink="http://www.w3.org/1999/xlink" xmlns="http://www.w3.org/2000/svg" width="788pt" version="1.1">
<defs>
<linearGradient y1="148.327" id="LinearGradient" x1="372.107" y2="158.691" x2="386.465" gradientUnits="userSpaceOnUse" gradientTransform="matrix(1 0 0 1 0 0)">
<stop stop-color="#002968" offset="0.0169173"/>
<stop stop-color="#1a1c34" offset="0.99812"/>
</linearGradient>
</defs>
<g id="Ebene 9">
<path d="M277.676+423.886L341.245+241.223L480.226+52.6777L787.665+425.229" fill-opacity="0.210884" fill="#050505" opacity="1"/>
</g>
<g id="Ebene 10">
<path d="M306.151+300.922L348.573+325.518L332.58+349.406L290.165+325.888" opacity="1" fill="#fbd9b1"/>
<path d="M308.174+359.589" opacity="1" fill="#f5d9a9"/>
</g>
<g id="Ebene 2">
<path d="M294.513+64.8602L468.7+46.4712C475.506+45.8481+481.529+50.8607+482.152+57.6672L508.897+297.412C509.52+304.218+504.507+310.241+497.701+310.864L319.776+328.295C312.969+328.918+306.946+323.905+306.323+317.099L283.317+78.3128C282.694+71.5062+287.707+65.4833+294.513+64.8602Z" opacity="1" fill="#45534e"/>
<path d="M342.261+55.6477L420.856+47.5908C422.504+47.4218+423.977+48.621+424.146+50.2692L426.559+73.4101C426.728+75.0583+425.529+76.5314+423.881+76.7004L345.286+84.7573C343.638+84.9262+342.165+83.7271+341.996+82.0788L339.583+58.938C339.414+57.2898+340.613+55.8167+342.261+55.6477Z" opacity="1" fill="#8d9797"/>
</g>
<g id="Ebene 3">
<path d="M291.383+82.9303L474.572+63.9794C475.122+63.925+475.611+64.3265+475.666+64.8761L501.647+295.48C501.702+296.03+501.3+296.519+500.751+296.574L315.158+316.825C314.608+316.879+314.119+316.478+314.064+315.928L290.486+84.0239C290.432+83.4743+290.833+82.9847+291.383+82.9303Z" opacity="1" fill="#cae4d9"/>
</g>
<g id="Ebene 1">
<path stroke="#8fc748" stroke-width="3" d="M314.426+125.031L462.094+110.474" fill="#74b587" stroke-linecap="round" opacity="1" stroke-linejoin="round"/>
<path stroke="#8fc748" stroke-width="3" d="M315.173+131.721L462.841+117.164" fill="#74b587" stroke-linecap="round" opacity="1" stroke-linejoin="round"/>
<path stroke="#8fc748" stroke-width="3" d="M316.018+138.165L463.686+123.609" fill="#74b587" stroke-linecap="round" opacity="1" stroke-linejoin="round"/>
<path stroke="#8fc748" stroke-width="3" d="M316.716+144.904L464.384+130.348" fill="#74b587" stroke-linecap="round" opacity="1" stroke-linejoin="round"/>
<path stroke="#8fc748" stroke-width="3" d="M317.512+151.937L465.18+137.381" fill="#74b587" stroke-linecap="round" opacity="1" stroke-linejoin="round"/>
<path stroke="#8fc748" stroke-width="3" d="M365.749+168.029L461.376+159.189" fill="#74b587" stroke-linecap="round" opacity="1" stroke-linejoin="round"/>
<path stroke="#8fc748" stroke-width="3" d="M366.152+174.474L461.779+165.633" fill="#74b587" stroke-linecap="round" opacity="1" stroke-linejoin="round"/>
<path stroke="#8fc748" stroke-width="3" d="M367.292+181.213L462.919+172.372" fill="#74b587" stroke-linecap="round" opacity="1" stroke-linejoin="round"/>
<path stroke="#8fc748" stroke-width="3" d="M368.432+187.657L464.059+178.816" fill="#74b587" stroke-linecap="round" opacity="1" stroke-linejoin="round"/>
<path stroke="#8fc748" stroke-width="3" d="M370.161+211.046L465.788+202.205" fill="#74b587" stroke-linecap="round" opacity="1" stroke-linejoin="round"/>
<path stroke="#8fc748" stroke-width="3" d="M371.01+217.684L466.636+208.844" fill="#74b587" stroke-linecap="round" opacity="1" stroke-linejoin="round"/>
<path stroke="#8fc748" stroke-width="3" d="M371.858+224.026L467.485+215.185" fill="#74b587" stroke-linecap="round" opacity="1" stroke-linejoin="round"/>
<path stroke="#8fc748" stroke-width="3" d="M373.598+230.071L434.482+224.359" fill="#74b587" stroke-linecap="round" opacity="1" stroke-linejoin="round"/>
<path stroke="#8fc748" stroke-width="3" d="M331.838+258.236L394.694+251.676" fill="#74b587" stroke-linecap="round" opacity="1" stroke-linejoin="round"/>
<path stroke="#8fc748" stroke-width="3" d="M332.389+265.171L395.246+258.612" fill="#74b587" stroke-linecap="round" opacity="1" stroke-linejoin="round"/>
<path stroke="#8fc748" stroke-width="3" d="M333.089+271.364L395.946+264.805" fill="#74b587" stroke-linecap="round" opacity="1" stroke-linejoin="round"/>
<path stroke="#8fc748" stroke-width="3" d="M334.531+277.854L397.388+271.295" fill="#74b587" stroke-linecap="round" opacity="1" stroke-linejoin="round"/>
<path stroke="#8fc748" stroke-width="3" d="M335.974+284.344L375.543+279.884" fill="#74b587" stroke-linecap="round" opacity="1" stroke-linejoin="round"/>
<path stroke="#8fc748" stroke-width="3" d="M333.778+168.749L347.791+167.249C351.292+166.875+354.434+169.409+354.809+172.911L356.25+186.372C356.624+189.873+354.09+193.015+350.589+193.39L336.576+194.89C333.075+195.264+329.932+192.73+329.558+189.229L328.117+175.767C327.742+172.266+330.277+169.124+333.778+168.749Z" fill="#74b587" stroke-linecap="round" fill-opacity="0" opacity="1" stroke-linejoin="round"/>
<path stroke="#8fc748" stroke-width="3" d="M339.296+211.309L353.301+209.74C356.801+209.348+359.956+211.867+360.348+215.366L361.855+228.82C362.247+232.319+359.728+235.474+356.229+235.866L342.224+237.436C338.725+237.828+335.57+235.309+335.178+231.809L333.67+218.355C333.278+214.856+335.797+211.701+339.296+211.309Z" fill="#74b587" stroke-linecap="round" fill-opacity="0" opacity="1" stroke-linejoin="round"/>
<path stroke="#9a9a9a" stroke-width="2.5" d="M326.05+68.8688L439.038+57.2008C442.343+56.9601+445.217+59.4442+445.458+62.7492L446.933+77.2994C447.174+80.6043+444.69+83.4786+441.385+83.7193L328.398+95.3873C325.093+95.628+322.218+93.1438+321.978+89.8389L320.502+75.2887C320.261+71.9837+322.745+69.1094+326.05+68.8688Z" fill="none" stroke-linecap="round" opacity="1" stroke-linejoin="round"/>
</g>
<g id="Ebene 6">
<path d="M374.428+146.526L385.173+184.37L402.734+173.241" opacity="1" fill="#ffd08a"/>
<path d="M374.255+146.297L377.961+159.027L383.906+155.238" opacity="1" fill="url(#LinearGradient)"/>
<path d="M385.131+184.37C385.131+184.37+461.651+316.001+466.277+322.599C470.903+329.198+478.244+325.191+479.679+323.756C481.515+321.919+487.23+318.926+482.944+312.191C478.674+305.481+402.712+173.146+402.712+173.146" opacity="1" fill="#608a32"/>
<path d="M335.109+64.7428L429.254+56.0189C429.804+55.9667+430.292+56.3701+430.344+56.9199L430.761+61.3125C430.813+61.8623+430.41+62.3504+429.86+62.4026L335.715+71.1265C335.165+71.1787+334.677+70.7753+334.625+70.2255L334.208+65.8329C334.156+65.2831+334.559+64.795+335.109+64.7428Z" opacity="1" fill="#f4daac"/>
<path d="M465.599+339.452L473.686+352.593C473.686+352.593+528.893+320.168+528.582+321.101C528.271+322.034+520.107+307.649+520.107+307.649" opacity="1" fill="#f5deb6"/>
</g>
<g id="Ebene 7">
<path d="M464.059+354.01L478.436+378.022L548.918+338.157L533.61+313.989" opacity="1" fill="#fefae1"/>
<path d="M269.835+314.212L252.637+342.972L323.184+380.075L338.991+352.925" opacity="1" fill="#fefae1"/>
<path d="M363.214+356.145" opacity="1" fill="#fcf7ec"/>
</g>
<g id="Ebene 8">
<path d="M402.694+173.157C402.694+173.157+453.303+260.502+474.695+297.829C480.018+307.117+483.532+313.308+484.006+314.285C486.8+320.037+479.367+324.164+479.367+324.164L394.451+178.413" fill-opacity="0.246599" fill="#000000" opacity="1"/>
</g>
<g id="Ebene 5">
<path d="M290.215+325.928L304.969+302.783L298.955+238.227C298.955+238.227+321.491+233.728+324.459+232.016C327.427+230.303+330.28+226.537+330.052+222.77C329.824+219.003+329.911+214.976+327.709+212.242C325.507+209.509+323.988+206.623+318.521+207.079C313.054+207.535+295.514+210.951+287.997+212.85C280.48+214.748+275.522+215.102+271.642+218.404C267.762+221.706+268.505+235.493+268.505+235.493L270.831+298.703C270.831+298.703+271.019+303.916+272.316+308.051C273.613+312.186+276.857+318.105+276.857+318.105" opacity="1" fill="#fbd9b1"/>
<path d="M468.502+343.077L521.339+312.013C521.339+312.013+527.722+308.529+528.942+304.488C530.162+300.446+530.467+287.254+530.467+287.254L530.01+258.736C530.01+258.736+530.238+250.043+528.561+246.23C526.883+242.418+520.63+232.581+515.293+228.387C509.955+224.193+498.975+216.027+498.975+216.027C495.094+212.331+487.885+205.215+487.885+205.215C487.885+205.215+484.189+201.61+480.492+199.392C476.795+197.174+466.63+194.772+466.63+194.772L433.822+184.514C433.822+184.514+416.356+176.566+412.197+177.767C408.039+178.969+406.098+183.22+406.467+189.042C406.837+194.864+409.979+200.594+415.986+203.366C421.993+206.139+453.23+215.288+453.23+215.288L475.287+249.501C477.674+252.652+484.238+260.661+479.459+263.911C477.953+264.935+469.191+270.037+461.337+274.871C461.337+274.871+482.941+311.475+484.302+315.287C485.663+319.098+481.159+322.538+479.229+323.861C477.353+325.147+470.934+328.301+466.85+323.31C462.766+318.318+444.455+285.516+444.455+285.516C444.455+285.516+436.989+273.383+436.073+271.21C435.218+269.182+434.314+259.671+433.09+253.129C431.61+245.216+432.615+240.53+427.483+234.171C424.26+230.177+416.815+227.373+409.521+232.833C401.899+238.538+403.608+246.555+403.686+248.26C404.006+255.238+410.083+281.961+411.228+284.347C412.374+286.734+426.79+312.033+426.79+312.033L445.05+343.721C445.05+343.721+450.785+352.514+456.615+350.029" opacity="1" fill="#fbd9b1"/>
</g>
<g id="Ebene 4">
<path d="M197.829+420.44L249.908+331.49L299.93+360.306L332.811+379.248L307.923+420.951L197.829+420.44Z" opacity="1" fill="#eaf5ef"/>
<path d="M494.765+421.09L470.298+378.976L553.689+331.601L605.996+420.775L494.765+421.09Z" opacity="1" fill="#eaf5ef"/>
<path d="M264.893+330.585C264.893+326.361+268.232+322.938+272.351+322.938C276.47+322.938+279.809+326.361+279.809+330.585C279.809+334.808+276.47+338.231+272.351+338.231C268.232+338.231+264.893+334.808+264.893+330.585Z" opacity="1" fill="#fae69c"/>
<path d="M522.576+331.005C522.576+326.678+526.127+323.17+530.506+323.17C534.886+323.17+538.436+326.678+538.436+331.005C538.436+335.333+534.886+338.841+530.506+338.841C526.127+338.841+522.576+335.333+522.576+331.005Z" opacity="1" fill="#fae69c"/>
<path d="M304.088+221.346C304.088+215.719+308.315+211.648+314.116+211.648C319.917+211.648+325.095+215.719+325.095+221.346C325.095+226.974+319.917+231.109+314.116+231.109C308.315+231.109+304.088+226.974+304.088+221.346Z" opacity="1" fill="#f2efe0"/>
<path d="M407.445+244.069C407.445+238.422+411.675+233.163+417.543+233.163C423.411+233.163+428.481+237.435+428.481+243.082C428.481+248.729+423.719+253.457+417.851+253.457C411.983+253.457+407.445+249.716+407.445+244.069Z" opacity="1" fill="#f2efe0"/>
<path d="M433.303+184.23C433.303+184.23+431.85+183.324+423.01+179.699C417.662+177.506+413.579+177.103+413.579+177.103C413.579+177.103+411.988+181.799+412.923+184.136C413.858+186.473+413.484+188.437+422.272+190.774C431.06+193.111+433.303+184.23+433.303+184.23Z" opacity="1" fill="#f2efe0"/>
</g>
</svg>
