<?xml version="1.0" encoding="UTF-8" standalone="no"?>
<!-- Generator: Adobe Illustrator 16.0.0, SVG Export Plug-In . SVG Version: 6.00 Build 0)  -->

<svg
   xmlns:dc="http://purl.org/dc/elements/1.1/"
   xmlns:cc="http://creativecommons.org/ns#"
   xmlns:rdf="http://www.w3.org/1999/02/22-rdf-syntax-ns#"
   xmlns:svg="http://www.w3.org/2000/svg"
   xmlns="http://www.w3.org/2000/svg"
   xmlns:sodipodi="http://sodipodi.sourceforge.net/DTD/sodipodi-0.dtd"
   xmlns:inkscape="http://www.inkscape.org/namespaces/inkscape"
   version="1.1"
   id="Ebene_1"
   x="0px"
   y="0px"
   width="317.27502"
   height="83.890007"
   viewBox="0 0 317.275 83.89"
   enable-background="new 0 0 595.275 841.89"
   xml:space="preserve"
   inkscape:version="0.91 r13725"
   sodipodi:docname="sturamed.svg"><metadata
     id="metadata361"><rdf:RDF><cc:Work
         rdf:about=""><dc:format>image/svg+xml</dc:format><dc:type
           rdf:resource="http://purl.org/dc/dcmitype/StillImage" /><dc:title></dc:title></cc:Work></rdf:RDF></metadata><defs
     id="defs359" /><sodipodi:namedview
     pagecolor="#ffffff"
     bordercolor="#666666"
     borderopacity="1"
     objecttolerance="10"
     gridtolerance="10"
     guidetolerance="10"
     inkscape:pageopacity="0"
     inkscape:pageshadow="2"
     inkscape:window-width="640"
     inkscape:window-height="480"
     id="namedview357"
     showgrid="false"
     inkscape:zoom="1.1212866"
     inkscape:cx="120.05988"
     inkscape:cy="30.337106"
     inkscape:window-x="0"
     inkscape:window-y="0"
     inkscape:window-maximized="0"
     inkscape:current-layer="Ebene_1" /><g
     id="Graustufen"
     transform="translate(-145.36872,-96.260104)"><g
       id="Ellipse_1_"
       style="opacity:0.8"><g
         id="g340"><path
           d="m 421.902,99.211 -182.501,0.001 c -10.079,0 -19.271,3.78 -26.25,9.993 8.126,7.235 13.25,17.77 13.25,29.506 0,11.736 -5.124,22.271 -13.25,29.506 6.979,6.213 16.171,9.994 26.25,9.994 l 182.501,0 c 21.816,0 39.5,-17.685 39.5,-39.5 0,-21.815 -17.683,-39.5 -39.5,-39.5 z"
           id="path342"
           inkscape:connector-curvature="0" /></g></g><circle
       id="Kreis_1_"
       cx="186.901"
       cy="138.711"
       r="39.5"
       style="opacity:0.6" /><path
       id="Pfad_1_"
       d="m 430.671,120.562 c -0.156,0.43 -0.318,0.902 -0.504,1.462 l -2.211,6.739 c -0.605,1.868 -1.309,4.065 -2.023,6.32 -0.137,-0.352 -0.334,-0.679 -0.611,-0.986 0.029,0.028 -0.021,-0.028 -0.084,-0.088 -0.256,-0.267 -0.529,-0.506 -0.852,-0.72 -0.07,-0.05 -0.139,-0.084 -0.209,-0.129 -0.244,-0.147 -0.477,-0.29 -0.734,-0.399 -1.02,-0.457 -1.957,-0.514 -2.666,-0.42 -0.193,0.025 -0.375,0.062 -0.559,0.111 -0.223,0.06 -0.332,0.11 -0.5,0.169 -0.168,0.059 -0.381,0.154 -0.57,0.247 -0.279,0.131 -0.564,0.295 -0.855,0.485 -0.051,0.035 -0.104,0.058 -0.152,0.094 -0.719,0.5 -1.461,1.219 -2.209,2.179 -1.531,1.895 -2.965,4.422 -4.506,7.148 -2.631,4.66 -5.906,10.458 -8.971,10.958 -0.164,0.025 -0.488,0.068 -0.91,-0.195 2.039,-2.406 3.938,-5.581 5.604,-9.563 0.885,-2.114 1.248,-3.945 1.248,-5.494 0,-2.941 -1.312,-4.858 -2.846,-5.743 -2.115,-1.221 -5.752,-1.112 -9.043,3.21 -1.701,2.234 -2.562,5.822 -2.562,9.494 0,2.496 0.412,5.021 1.211,7.196 -1.328,0.885 -2.75,1.346 -4.236,0.855 -4.188,-1.385 -0.252,-16.922 1.428,-23.558 1.852,-7.316 2.334,-9.498 1.172,-11.131 -0.486,-0.684 -1.242,-1.116 -2.07,-1.188 -2.57,-0.219 -4.379,2.411 -9.307,10.603 -0.57,0.949 -1.225,2.036 -1.846,3.038 -0.209,-1.178 -0.406,-2.44 -0.568,-3.482 -1.068,-6.849 -1.604,-10.286 -4.695,-10.165 -2.275,0.092 -2.664,1.508 -4.814,9.369 -1.773,6.477 -4.453,16.264 -7.459,21.456 -2.66,4.597 -5.342,5.007 -12.33,5.007 0,0 -122.164,-0.002 -122.165,-0.002 l -3.998,0.002 c -7.472,0.049 -10.581,-0.068 -12.528,-3.501 -0.91,-1.605 -1.38,-4.957 -1.794,-7.914 -0.803,-5.725 -1.633,-11.645 -6.396,-11.645 -4.7,0 -5.616,4.364 -6.285,7.551 -0.559,2.661 -1.136,5.413 -3.157,7.186 -3.233,2.834 -4.033,9.112 -4.738,14.653 -0.028,0.225 -0.062,0.475 -0.093,0.713 -0.913,-7.062 -1.01,-19.794 -1.067,-27.563 -0.154,-20.809 -0.324,-25.213 -4.266,-25.213 -2.816,0 -3.867,2.184 -5.396,16.645 -0.824,7.79 -1.458,16.719 -1.763,21.01 0,0 -0.004,0.049 -0.004,0.051 -1.36,-2.416 -3.362,-4.881 -6.525,-4.881 -4.032,0 -5.99,2.417 -7.287,4.017 -0.532,0.657 -0.993,1.226 -1.473,1.546 -0.988,0.66 -2.241,-0.041 -2.294,-0.071 -1.187,-0.677 -2.714,-0.287 -3.409,0.889 -0.694,1.175 -0.337,2.679 0.828,3.394 1.467,0.897 4.729,1.897 7.651,-0.053 1.11,-0.742 1.858,-1.733 2.581,-2.557 1.067,-1.215 1.505,-2.164 3.083,-2.164 1.453,0 2.917,3.081 3.606,4.562 0.967,2.077 1.803,3.874 3.854,3.874 1.629,0 3.675,-0.959 4.171,-5.524 0,-0.002 0.205,-2.729 0.205,-2.729 0.508,-7.153 0.975,-12.779 1.398,-17.263 0.016,1.526 0.028,3.047 0.039,4.505 0.2,26.888 0.808,37.05 6.444,37.05 3.453,0 3.966,-4.029 4.676,-9.604 0.504,-3.959 1.266,-9.941 3.073,-11.526 3.277,-2.873 4.132,-6.945 4.756,-9.919 0.543,-2.588 0.855,-3.462 1.198,-3.499 0.563,0.037 1.305,4.887 1.638,7.261 0.5,3.565 1.017,7.253 2.396,9.686 3.473,6.123 9.402,6.084 16.91,6.035 l 3.94,-0.002 122.19,0.002 c 7.439,0 12.617,-0.523 16.658,-7.502 3.229,-5.578 5.834,-14.906 7.768,-21.967 1.047,6.708 1.641,10.095 4.732,9.939 1.945,-0.098 2.939,-1.632 6.84,-8.116 0.283,-0.472 0.605,-1.006 0.939,-1.557 -1.52,6.006 -3.273,13.082 -3.273,18.805 0,4.962 1.32,8.894 5.258,10.194 2.902,0.961 5.775,0.447 8.492,-1.332 1.533,1.428 3.41,2.088 5.416,1.76 3.188,-0.52 5.736,-2.951 8.01,-6.102 0.104,0.693 0.262,1.344 0.48,1.939 0.818,2.217 2.256,3.172 3.318,3.582 2.002,0.771 3.9,0.725 5.646,-0.143 1.619,-0.801 2.992,-2.334 4.211,-4.525 0.209,0.828 0.467,1.594 0.828,2.227 0.889,1.557 2.229,2.562 3.877,2.912 2.6,0.547 4.33,-0.293 5.594,-0.902 1.447,-0.699 2.404,-1.162 5.732,0.65 1.213,0.66 2.73,0.215 3.391,-1 0.66,-1.211 0.215,-2.73 -0.998,-3.391 -5.158,-2.809 -7.816,-1.963 -10.301,-0.76 -1.002,0.484 -1.41,0.764 -2.191,0.576 -0.125,-0.029 -0.516,-0.135 -0.76,-0.564 -1.496,-2.62 -0.941,-12.499 5.543,-31.716 l 0.219,-0.661 c 0.211,-0.646 0.139,-1.309 -0.18,-1.91 -0.318,-0.601 -0.881,-1.005 -1.535,-1.191 -1.691,-0.484 -2.422,0.271 -3.137,2.02 -10e-4,0 -0.181,0.425 -0.337,0.854 z m -31.715,24.786 c 0,-2.566 0.508,-5.033 1.529,-6.372 1.299,-1.707 2.377,-1.982 2.566,-1.908 0.135,0.079 0.34,0.537 0.34,1.379 0,0.827 -0.199,2.025 -0.857,3.598 -0.412,0.988 -1.627,3.697 -3.324,6.256 -0.152,-0.966 -0.254,-1.96 -0.254,-2.953 z m 22.471,-8.014 c 0.021,-0.004 0.043,0.01 0.064,0.016 0.064,0.047 0.176,0.129 0.359,0.315 0.756,0.771 1.939,0.988 2.904,0.501 0.088,-0.045 0.189,-0.135 0.291,-0.263 -0.838,2.679 -1.658,5.359 -2.336,7.69 -1.771,6.096 -3.539,7.535 -4.215,7.871 -0.328,0.162 -1.016,0.27 -1.414,0.082 -0.297,-0.141 -0.51,-0.42 -0.641,-0.773 -0.23,-0.625 -0.338,-1.453 -0.338,-2.404 0,-2.884 0.99,-6.897 2.566,-9.811 0.393,-0.727 0.752,-1.281 1.072,-1.718 0.09,-0.117 0.178,-0.229 0.264,-0.335 0.18,-0.22 0.346,-0.403 0.494,-0.548 0.055,-0.056 0.109,-0.11 0.162,-0.16 0.471,-0.412 0.746,-0.46 0.768,-0.463 z m -193.163,16.106 0,0 0,0 z"
       inkscape:connector-curvature="0"
       style="fill:#ffffff" /><g
       id="StuRa_1_"><path
         d="m 236.217,149.564 1.477,-6.07 c 2.531,1.344 5.242,2.016 8.133,2.016 3.422,0 5.133,-1.164 5.133,-3.492 0,-1.188 -0.648,-2.195 -1.945,-3.023 -0.703,-0.453 -1.867,-0.969 -3.492,-1.547 -5.922,-2.078 -8.883,-5.258 -8.883,-9.539 0,-3.172 1.297,-5.641 3.891,-7.406 2.266,-1.531 5.055,-2.297 8.367,-2.297 3.156,0 5.906,0.531 8.25,1.594 l -1.641,5.906 c -2.141,-1.031 -4.391,-1.547 -6.75,-1.547 -1.203,0 -2.234,0.219 -3.094,0.656 -1.078,0.547 -1.617,1.367 -1.617,2.461 0,0.969 0.477,1.789 1.43,2.461 0.797,0.562 2.32,1.266 4.57,2.109 5.594,2.094 8.391,5.305 8.391,9.633 0,2.891 -1.07,5.25 -3.211,7.078 -2.359,2.016 -5.641,3.023 -9.844,3.023 -3.704,0 -6.759,-0.672 -9.165,-2.016 z"
         id="path347"
         inkscape:connector-curvature="0"
         style="fill:#ffffff" /><path
         d="m 267.07,151.041 0,-19.106 -6.34,0 0,-4.478 18.132,0 0,4.478 -6.443,0 0,19.106 -5.349,0 z"
         id="path349"
         inkscape:connector-curvature="0"
         style="fill:#ffffff" /><path
         d="m 281.665,127.457 5.349,0 0,13.569 c 0,4.091 1.424,6.136 4.272,6.136 2.894,0 4.341,-2.045 4.341,-6.136 l 0,-13.569 5.315,0 0,13.228 c 0,3.589 -0.861,6.295 -2.581,8.118 -1.664,1.754 -4.079,2.631 -7.246,2.631 -6.301,0 -9.451,-3.605 -9.451,-10.817 l 0,-13.16 z"
         id="path351"
         inkscape:connector-curvature="0"
         style="fill:#ffffff" /><path
         d="m 306.414,151.041 0,-31.922 c 2.75,-0.453 6,-0.68 9.75,-0.68 8.953,0 13.43,3.109 13.43,9.328 0,1.797 -0.527,3.426 -1.582,4.887 -1.055,1.461 -2.434,2.488 -4.137,3.082 l 0,0.141 c 2.047,0.844 3.492,2.852 4.336,6.023 0.844,3.171 1.719,6.219 2.625,9.141 l -7.477,0 c -0.609,-1.125 -1.359,-3.641 -2.25,-7.547 -0.406,-1.812 -0.922,-3.078 -1.547,-3.797 -0.797,-0.922 -2.031,-1.383 -3.703,-1.383 l -2.203,0 0,12.727 -7.242,0 z m 7.242,-26.93 0,8.93 2.883,0 c 1.625,0 2.961,-0.359 4.008,-1.078 1.203,-0.844 1.805,-2.039 1.805,-3.586 0,-2.984 -1.789,-4.484 -5.367,-4.5 -1.547,-0.016 -2.657,0.062 -3.329,0.234 z"
         id="path353"
         inkscape:connector-curvature="0"
         style="fill:#ffffff" /><path
         d="m 346.246,144.991 -6.75,0 -1.675,6.05 -5.537,0 7.212,-23.584 6.99,0 7.331,23.584 -5.742,0 -1.829,-6.05 z m -5.98,-3.999 5.212,0 -1.47,-5.008 c -0.229,-0.854 -0.627,-2.369 -1.196,-4.545 l -0.068,0 c -0.183,0.865 -0.542,2.381 -1.077,4.545 l -1.401,5.008 z"
         id="path355"
         inkscape:connector-curvature="0"
         style="fill:#ffffff" /></g></g></svg>